<svg xmlns="http://www.w3.org/2000/svg" width="1040" height="424" viewBox="0 0 1040 424" role="img" aria-labelledby="title description">
<title id="title">Terraform plan</title>
<desc id="description">3 resources (2 cards), 1 relationships. Lines show architectural relationships. Edge titles identify the relationship kind and Terraform change.</desc>
<defs><marker id="arrow" viewBox="0 0 10 10" refX="9" refY="5" markerWidth="7" markerHeight="7" orient="auto-start-reverse"><path d="M 0 0 L 10 5 L 0 10 z" fill="#94a3b8"/></marker><marker id="arrow-create" viewBox="0 0 10 10" refX="9" refY="5" markerWidth="7" markerHeight="7" orient="auto-start-reverse"><path d="M 0 0 L 10 5 L 0 10 z" fill="#047857"/></marker></defs>
<rect width="100%" height="100%" fill="#ffffff"/>
<g font-family="ui-monospace, SFMono-Regular, Consolas, monospace">
<text x="40" y="45" font-size="25" font-weight="700" fill="#0f172a">Terraform plan</text>
<text x="40" y="73" font-size="13" fill="#475569">3 resources (2 cards) · 1 relationships</text>
<rect x="40" y="100" width="12" height="12" fill="#ecfdf5" stroke="#047857"/><text x="59" y="111" font-size="12" fill="#047857">create (3)</text>
<rect x="180" y="100" width="12" height="12" fill="#eff6ff" stroke="#1d4ed8"/><text x="199" y="111" font-size="12" fill="#1d4ed8">update (0)</text>
<rect x="320" y="100" width="12" height="12" fill="#fef2f2" stroke="#b91c1c"/><text x="339" y="111" font-size="12" fill="#b91c1c">delete (0)</text>
<rect x="460" y="100" width="12" height="12" fill="#fff7ed" stroke="#c2410c"/><text x="479" y="111" font-size="12" fill="#c2410c">replace (0)</text>
<rect x="600" y="100" width="12" height="12" fill="#faf5ff" stroke="#7e22ce"/><text x="619" y="111" font-size="12" fill="#7e22ce">read (0)</text>
<rect x="740" y="100" width="12" height="12" fill="#f8fafc" stroke="#64748b"/><text x="759" y="111" font-size="12" fill="#64748b">unchanged (0)</text>
<rect x="880" y="100" width="12" height="12" fill="#fefce8" stroke="#854d0e"/><text x="899" y="111" font-size="12" fill="#854d0e">other (0)</text>
<rect x="35" y="160" width="970" height="200" rx="12" fill="#f8fafc" stroke="#cbd5e1" stroke-dasharray="5 4"/><text x="52" y="185" font-size="13" font-weight="700" fill="#475569"><title>root</title>root</text>
<path d="M 380 256 L 480 256 " data-edge-kind="association" fill="none" stroke="#047857" stroke-width="1.5" stroke-linejoin="round" marker-end="url(#arrow-create)"><title>aws_subnet.private → aws_route_table.private (association; create: aws_route_table_association.private)</title></path>
<g id="resource-0"><title>aws_route_table.private — create</title><rect x="480" y="208" width="320" height="96" rx="8" fill="#ecfdf5" stroke="#047857" stroke-width="1.5"/>
<text x="492" y="228" font-size="11" fill="#047857">aws_route_table · create</text>
<text x="492" y="253" font-size="13" fill="#0f172a">aws_route_table.private</text>
</g>
<g id="resource-1"><title>aws_subnet.private — create</title><rect x="60" y="208" width="320" height="96" rx="8" fill="#ecfdf5" stroke="#047857" stroke-width="1.5"/>
<text x="72" y="228" font-size="11" fill="#047857">aws_subnet · create</text>
<text x="72" y="253" font-size="13" fill="#0f172a">aws_subnet.private</text>
</g>
</g>
</svg>
