<svg xmlns="http://www.w3.org/2000/svg" width="1100" height="1448" viewBox="0 0 1100 1448" role="img" aria-labelledby="title description">
<title id="title">Terraform plan</title>
<desc id="description">8 resources (8 cards), 6 relationships. Lines show architectural relationships. Edge titles identify the relationship kind and Terraform change.</desc>
<defs><marker id="arrow" viewBox="0 0 10 10" refX="9" refY="5" markerWidth="7" markerHeight="7" orient="auto-start-reverse"><path d="M 0 0 L 10 5 L 0 10 z" fill="#94a3b8"/></marker><metadata id="planorama-icons-license">MIT License

Copyright (c) 2026 Planorama contributors

Permission is hereby granted, free of charge, to any person obtaining a copy
of the Planorama service glyphs and associated documentation files (the
&quot;Software&quot;), to deal in the Software without restriction, including without
limitation the rights to use, copy, modify, merge, publish, distribute,
sublicense, and/or sell copies of the Software, and to permit persons to whom
the Software is furnished to do so, subject to the following conditions:

The above copyright notice and this permission notice shall be included in all
copies or substantial portions of the Software.

THE SOFTWARE IS PROVIDED &quot;AS IS&quot;, WITHOUT WARRANTY OF ANY KIND, EXPRESS OR
IMPLIED, INCLUDING BUT NOT LIMITED TO THE WARRANTIES OF MERCHANTABILITY,
FITNESS FOR A PARTICULAR PURPOSE AND NONINFRINGEMENT. IN NO EVENT SHALL THE
AUTHORS OR COPYRIGHT HOLDERS BE LIABLE FOR ANY CLAIM, DAMAGES OR OTHER
LIABILITY, WHETHER IN AN ACTION OF CONTRACT, TORT OR OTHERWISE, ARISING FROM,
OUT OF OR IN CONNECTION WITH THE SOFTWARE OR THE USE OR OTHER DEALINGS IN THE
SOFTWARE.
</metadata><symbol id="planorama-icon-aws-vpc" viewBox="0 0 24 24"><rect width="24" height="24" rx="4" fill="#6346a6"/><g fill="none" stroke="#fff" stroke-width="1.5" stroke-linecap="round" stroke-linejoin="round"><rect x="5" y="6" width="14" height="12" rx="3"/><circle cx="9" cy="12" r="1.5"/><circle cx="15" cy="12" r="1.5"/><path d="M10.5 12h3M12 3v3m0 12v3"/></g></symbol><symbol id="planorama-icon-aws-subnet" viewBox="0 0 24 24"><rect width="24" height="24" rx="4" fill="#6346a6"/><g fill="none" stroke="#fff" stroke-width="1.5" stroke-linecap="round" stroke-linejoin="round"><rect x="5" y="5" width="14" height="14" rx="2"/><path d="M5 12h14M12 5v14"/></g></symbol><symbol id="planorama-icon-aws-ec2" viewBox="0 0 24 24"><rect width="24" height="24" rx="4" fill="#a54e08"/><g fill="none" stroke="#fff" stroke-width="1.5" stroke-linecap="round" stroke-linejoin="round"><rect x="7" y="7" width="10" height="10" rx="1"/><path d="M9 3v4m6-4v4M9 17v4m6-4v4M3 9h4m-4 6h4m10-6h4m-4 6h4"/></g></symbol><symbol id="planorama-icon-aws-elb" viewBox="0 0 24 24"><rect width="24" height="24" rx="4" fill="#6346a6"/><g fill="none" stroke="#fff" stroke-width="1.5" stroke-linecap="round" stroke-linejoin="round"><path d="M4 12h7m0 0 6-6m-6 6 6 6"/><rect x="17" y="4" width="4" height="4" rx="1"/><rect x="17" y="16" width="4" height="4" rx="1"/><circle cx="5" cy="12" r="2"/></g></symbol><symbol id="planorama-icon-aws-ecs" viewBox="0 0 24 24"><rect width="24" height="24" rx="4" fill="#a54e08"/><g fill="none" stroke="#fff" stroke-width="1.5" stroke-linecap="round" stroke-linejoin="round"><path d="m12 4 8 4v8l-8 4-8-4V8zm-8 4 8 4 8-4m-8 4v8"/></g></symbol><symbol id="planorama-icon-aws-security" viewBox="0 0 24 24"><rect width="24" height="24" rx="4" fill="#a53655"/><g fill="none" stroke="#fff" stroke-width="1.5" stroke-linecap="round" stroke-linejoin="round"><path d="m12 3 8 3v6c0 5-8 9-8 9s-8-4-8-9V6zM8 12l3 3 5-6"/></g></symbol></defs>
<rect width="100%" height="100%" fill="#ffffff"/>
<g font-family="ui-monospace, SFMono-Regular, Consolas, monospace">
<text x="40" y="45" font-size="25" font-weight="700" fill="#0f172a">Terraform plan</text>
<text x="40" y="73" font-size="13" fill="#475569">8 resources (8 cards) · 6 relationships</text>
<rect x="40" y="100" width="12" height="12" fill="#ecfdf5" stroke="#047857"/><text x="59" y="111" font-size="12" fill="#047857">create (3)</text>
<rect x="180" y="100" width="12" height="12" fill="#eff6ff" stroke="#1d4ed8"/><text x="199" y="111" font-size="12" fill="#1d4ed8">update (1)</text>
<rect x="320" y="100" width="12" height="12" fill="#fef2f2" stroke="#b91c1c"/><text x="339" y="111" font-size="12" fill="#b91c1c">delete (0)</text>
<rect x="460" y="100" width="12" height="12" fill="#fff7ed" stroke="#c2410c"/><text x="479" y="111" font-size="12" fill="#c2410c">replace (0)</text>
<rect x="600" y="100" width="12" height="12" fill="#faf5ff" stroke="#7e22ce"/><text x="619" y="111" font-size="12" fill="#7e22ce">read (0)</text>
<rect x="740" y="100" width="12" height="12" fill="#f8fafc" stroke="#64748b"/><text x="759" y="111" font-size="12" fill="#64748b">unchanged (4)</text>
<rect x="880" y="100" width="12" height="12" fill="#fefce8" stroke="#854d0e"/><text x="899" y="111" font-size="12" fill="#854d0e">other (0)</text>
<g data-container="resource-3"><title>aws_vpc.app</title><rect x="60" y="160" width="400" height="136" rx="12" fill="#ecfdf5" stroke="#047857" stroke-width="2" data-mode="managed"/></g>
<g data-container="resource-6"><title>data.aws_subnet.shared</title><rect x="60" y="336" width="400" height="136" rx="12" fill="#f8fafc" stroke="#64748b" stroke-width="2" data-mode="data" stroke-dasharray="6 4"/></g>
<g data-container="resource-7"><title>data.aws_vpc.shared</title><rect x="60" y="512" width="480" height="448" rx="12" fill="#f8fafc" stroke="#64748b" stroke-width="2" data-mode="data" stroke-dasharray="6 4"/></g>
<g data-container="resource-2"><title>aws_subnet.app</title><rect x="100" y="648" width="400" height="272" rx="12" fill="#d1fae5" stroke="#047857" stroke-width="2" data-mode="managed"/></g>
<g data-edge-kind="containment" data-source="resource-2" data-target="resource-1"><title>aws_subnet.app → aws_instance.app (containment)</title></g>
<path d="M 380 1320 L 388 1320 Q 396 1320 396 1312 L 396 1046 Q 396 1038 388 1038 L 380 1038 " fill="none" stroke="#94a3b8" stroke-width="1.5" stroke-linejoin="round" marker-end="url(#arrow)"><title>data.aws_lb.shared → aws_ecs_service.app (dependency)</title></path>
<path d="M 380 1184 L 388 1184 Q 396 1184 396 1176 L 396 1120 Q 396 1112 404 1112 L 468 1112 Q 476 1112 476 1104 L 476 840 Q 476 832 468 832 L 460 832 " fill="none" stroke="#94a3b8" stroke-width="1.5" stroke-linejoin="round" marker-end="url(#arrow)"><title>data.aws_security_group.shared → aws_instance.app (dependency)</title></path>
<path d="M 460 388 L 476 388 L 548 388 Q 556 388 556 396 L 556 976 Q 556 984 548 984 L 484 984 Q 476 984 476 992 L 476 1049 Q 476 1057 468 1057 L 396 1057 L 380 1057 " fill="none" stroke="#94a3b8" stroke-width="1.5" stroke-linejoin="round" marker-end="url(#arrow)"><title>data.aws_subnet.shared → aws_ecs_service.app (dependency)</title></path>
<g data-edge-kind="containment" data-source="resource-7" data-target="resource-2"><title>data.aws_vpc.shared → aws_subnet.app (containment)</title></g>
<path d="M 540 736 L 548 736 Q 556 736 556 728 L 556 428 Q 556 420 548 420 L 476 420 L 460 420 " fill="none" stroke="#94a3b8" stroke-width="1.5" stroke-linejoin="round" marker-end="url(#arrow)"><title>data.aws_vpc.shared → data.aws_subnet.shared (dependency)</title></path>
<g id="resource-0" data-qualified-address="module.root.aws_ecs_service.app" data-terraform-address="aws_ecs_service.app"><title>module.root.aws_ecs_service.app — update</title>
<rect x="60" y="1000" width="320" height="96" rx="8" fill="#eff6ff" stroke="#1d4ed8" stroke-width="1.5" data-mode="managed"/>
<text x="72" y="1020" font-size="11" fill="#1d4ed8">aws_ecs_service · update</text>
<use href="#planorama-icon-aws-ecs" x="72" y="1028" width="24" height="24" aria-hidden="true"/><text x="104" y="1045" font-size="13" fill="#0f172a">module.root.aws_ecs_service.app</text>
<text x="72" y="1084" font-size="10" fill="#64748b" data-role="controller"><title>root</title>controller · root</text>
</g>
<g id="resource-1" data-qualified-address="module.root.aws_instance.app" data-terraform-address="aws_instance.app"><title>module.root.aws_instance.app — create</title>
<rect x="140" y="784" width="320" height="96" rx="8" fill="#ecfdf5" stroke="#047857" stroke-width="1.5" data-mode="managed"/>
<text x="152" y="804" font-size="11" fill="#047857">aws_instance · create</text>
<use href="#planorama-icon-aws-ec2" x="152" y="812" width="24" height="24" aria-hidden="true"/><text x="184" y="829" font-size="13" fill="#0f172a">module.root.aws_instance.app</text>
<text x="152" y="868" font-size="10" fill="#64748b"><title>root</title>root</text>
</g>
<g id="resource-2" data-qualified-address="module.root.aws_subnet.app" data-terraform-address="aws_subnet.app"><title>module.root.aws_subnet.app — create</title>
<text x="112" y="668" font-size="11" fill="#047857">aws_subnet · create</text>
<use href="#planorama-icon-aws-subnet" x="112" y="676" width="24" height="24" aria-hidden="true"/><text x="144" y="693" font-size="13" fill="#0f172a">module.root.aws_subnet.app</text>
<text x="112" y="732" font-size="10" fill="#64748b"><title>root</title>root</text>
</g>
<g id="resource-3" data-qualified-address="module.root.aws_vpc.app" data-terraform-address="aws_vpc.app"><title>module.root.aws_vpc.app — create</title>
<text x="72" y="180" font-size="11" fill="#047857">aws_vpc · create</text>
<use href="#planorama-icon-aws-vpc" x="72" y="188" width="24" height="24" aria-hidden="true"/><text x="104" y="205" font-size="13" fill="#0f172a">module.root.aws_vpc.app</text>
<text x="72" y="244" font-size="10" fill="#64748b"><title>root</title>root</text>
</g>
<g id="resource-4" data-qualified-address="module.root.data.aws_lb.shared" data-terraform-address="data.aws_lb.shared"><title>module.root.data.aws_lb.shared — unchanged</title>
<rect x="60" y="1272" width="320" height="96" rx="8" fill="#f8fafc" stroke="#64748b" stroke-width="1.5" data-mode="data" stroke-dasharray="6 4"/>
<g data-external="true"><title>External resource: read by Terraform, not managed by this configuration</title><rect x="302" y="1279" width="68" height="18" rx="4" fill="#e2e8f0"/><text x="308" y="1292" font-size="10" fill="#334155">external</text></g><text x="72" y="1292" font-size="11" fill="#64748b">aws_lb · unchanged</text>
<use href="#planorama-icon-aws-elb" x="72" y="1300" width="24" height="24" aria-hidden="true"/><text x="104" y="1317" font-size="13" fill="#0f172a">module.root.data.aws_lb.shared</text>
<text x="72" y="1356" font-size="10" fill="#64748b"><title>root</title>root</text>
</g>
<g id="resource-5" data-qualified-address="module.root.data.aws_security_group.shared" data-terraform-address="data.aws_security_group.shared"><title>module.root.data.aws_security_group.shared — unchanged</title>
<rect x="60" y="1136" width="320" height="96" rx="8" fill="#f8fafc" stroke="#64748b" stroke-width="1.5" data-mode="data" stroke-dasharray="6 4"/>
<g data-external="true"><title>External resource: read by Terraform, not managed by this configuration</title><rect x="302" y="1143" width="68" height="18" rx="4" fill="#e2e8f0"/><text x="308" y="1156" font-size="10" fill="#334155">external</text></g><text x="72" y="1156" font-size="11" fill="#64748b">aws_security_group · unchanged</text>
<use href="#planorama-icon-aws-security" x="72" y="1164" width="24" height="24" aria-hidden="true"/><text x="104" y="1181" font-size="13" fill="#0f172a">module.root.data.aws_security_gro</text>
<text x="104" y="1201" font-size="13" fill="#0f172a">up.shared</text>
<text x="72" y="1220" font-size="10" fill="#64748b" data-role="policy"><title>root</title>policy · root</text>
</g>
<g id="resource-6" data-qualified-address="module.root.data.aws_subnet.shared" data-terraform-address="data.aws_subnet.shared"><title>module.root.data.aws_subnet.shared — unchanged</title>
<g data-external="true"><title>External resource: read by Terraform, not managed by this configuration</title><rect x="302" y="343" width="68" height="18" rx="4" fill="#e2e8f0"/><text x="308" y="356" font-size="10" fill="#334155">external</text></g><text x="72" y="356" font-size="11" fill="#64748b">aws_subnet · unchanged</text>
<use href="#planorama-icon-aws-subnet" x="72" y="364" width="24" height="24" aria-hidden="true"/><text x="104" y="381" font-size="13" fill="#0f172a">module.root.data.aws_subnet.shared</text>
<text x="72" y="420" font-size="10" fill="#64748b"><title>root</title>root</text>
</g>
<g id="resource-7" data-qualified-address="module.root.data.aws_vpc.shared" data-terraform-address="data.aws_vpc.shared"><title>module.root.data.aws_vpc.shared — unchanged</title>
<g data-external="true"><title>External resource: read by Terraform, not managed by this configuration</title><rect x="302" y="519" width="68" height="18" rx="4" fill="#e2e8f0"/><text x="308" y="532" font-size="10" fill="#334155">external</text></g><text x="72" y="532" font-size="11" fill="#64748b">aws_vpc · unchanged</text>
<use href="#planorama-icon-aws-vpc" x="72" y="540" width="24" height="24" aria-hidden="true"/><text x="104" y="557" font-size="13" fill="#0f172a">module.root.data.aws_vpc.shared</text>
<text x="72" y="596" font-size="10" fill="#64748b"><title>root</title>root</text>
</g>
</g>
</svg>
