<svg xmlns="http://www.w3.org/2000/svg" width="1120" height="1220" viewBox="0 0 1120 1220" role="img" aria-labelledby="multi-title multi-description">
<title id="multi-title">Terraform plans</title><desc id="multi-description">2 independent states. Resource identities and relationships are scoped to each state.</desc>
<rect width="100%" height="100%" fill="#ffffff"/><text x="40" y="35" font-family="ui-monospace, Consolas, monospace" font-size="25" fill="#0f172a">Terraform plans</text>
<g id="state-6170706c69636174696f6e-state" data-state-id="application"><text x="40" y="85" font-family="ui-monospace, Consolas, monospace" font-size="20" font-weight="700" fill="#0f172a">State: application</text>
<svg y="100" xmlns="http://www.w3.org/2000/svg" width="1040" height="448" viewBox="0 0 1040 448" role="img" aria-labelledby="state-6170706c69636174696f6e-title state-6170706c69636174696f6e-description">
<title id="state-6170706c69636174696f6e-title">Terraform plan</title>
<desc id="state-6170706c69636174696f6e-description">2 resources, 1 reference edges. Arrows point from dependencies to dependent resources. References are conservative, not Terraform execution order. Thin solid: dependency. Dashed: association. Thick dotted: connection. Nested boxes: containment. Edge color preserves the Terraform action when available.</desc>
<defs><marker id="state-6170706c69636174696f6e-arrow" viewBox="0 0 10 10" refX="9" refY="5" markerWidth="7" markerHeight="7" orient="auto-start-reverse"><path d="M 0 0 L 10 5 L 0 10 z" fill="#94a3b8"/></marker><metadata id="state-6170706c69636174696f6e-planorama-icons-license">AWS Architecture Icons, release 07312026.
Copyright Amazon Web Services, Inc. or its affiliates. All rights reserved.
AWS service names and artwork are trademarks or other proprietary assets of AWS.
Source: https://aws.amazon.com/architecture/icons/
Terms: https://aws.amazon.com/terms/
These assets are used to illustrate AWS architecture. They are not licensed
under Planorama&apos;s original glyph MIT notice or any repository code license.
No AWS endorsement is implied. Consult the AWS terms for other uses.
</metadata><symbol id="state-6170706c69636174696f6e-planorama-icon-aws-ec2" viewBox="0 0 64 64"><g>
    <title>Icon-Architecture/48/Arch_Amazon-EC2_48</title>
    <g id="state-6170706c69636174696f6e-planorama-icon-aws-ec2-local-49636f6e2d4172636869746563747572652f34382f417263685f416d617a6f6e2d4543325f3438" stroke="none" stroke-width="1" fill="none" fill-rule="evenodd">
        <g id="state-6170706c69636174696f6e-planorama-icon-aws-ec2-local-49636f6e2d4172636869746563747572652d42472f34382f436f6d70757465" fill="#ED7100">
            <rect id="state-6170706c69636174696f6e-planorama-icon-aws-ec2-local-52656374616e676c65" x="0" y="0" width="64" height="64"></rect>
        </g>
        <path d="M22,41 L41,41 L41,23 L22,23 L22,41 Z M43,23 L46,23 L46,25 L43,25 L43,27 L46,27 L46,29 L43,29 L43,31 L46,31 L46,33 L43,33 L43,36 L46,36 L46,38 L43,38 L43,40 L46,40 L46,42 L42.863,42 C42.608,42.587 42.023,43 41.344,43 L41,43 L41,46 L39,46 L39,43 L37,43 L37,46 L35,46 L35,43 L33,43 L33,46 L31,46 L31,43 L29,43 L29,46 L27,46 L27,43 L24,43 L24,46 L22,46 L22,43 L21.656,43 C20.977,43 20.392,42.587 20.137,42 L18,42 L18,40 L20,40 L20,38 L18,38 L18,36 L20,36 L20,33 L18,33 L18,31 L20,31 L20,29 L18,29 L18,27 L20,27 L20,25 L18,25 L18,23 L20,23 L20,22.656 C20,21.743 20.743,21 21.656,21 L22,21 L22,18 L24,18 L24,21 L27,21 L27,18 L29,18 L29,21 L31,21 L31,18 L33,18 L33,21 L35,21 L35,18 L37,18 L37,21 L39,21 L39,18 L41,18 L41,21 L41.344,21 C42.257,21 43,21.743 43,22.656 L43,23 Z M32,52 L12,52 L12,32 L16,32 L16,30 L11.843,30 C10.826,30 10,30.827 10,31.843 L10,52.157 C10,53.173 10.826,54 11.843,54 L32.157,54 C33.174,54 34,53.173 34,52.157 L34,48 L32,48 L32,52 Z M54,11.843 L54,32.157 C54,33.173 53.174,34 52.157,34 L48,34 L48,32 L52,32 L52,12 L32,12 L32,16 L30,16 L30,11.843 C30,10.827 30.826,10 31.843,10 L52.157,10 C53.174,10 54,10.827 54,11.843 L54,11.843 Z" id="state-6170706c69636174696f6e-planorama-icon-aws-ec2-local-416d617a6f6e2d4543325f49636f6e5f34385f5371756964" fill="#FFFFFF"></path>
    </g>
</g></symbol><symbol id="state-6170706c69636174696f6e-planorama-icon-aws-vpc" viewBox="0 0 64 64"><g>
    <title>Icon-Architecture/48/Arch_Amazon-Virtual-Private-Cloud_48</title>
    <g id="state-6170706c69636174696f6e-planorama-icon-aws-vpc-local-49636f6e2d4172636869746563747572652f34382f417263685f416d617a6f6e2d5669727475616c2d507269766174652d436c6f75645f3438" stroke="none" stroke-width="1" fill="none" fill-rule="evenodd">
        <g id="state-6170706c69636174696f6e-planorama-icon-aws-vpc-local-49636f6e2d4172636869746563747572652d42472f34382f4e6574776f726b696e672d436f6e74656e742d44656c6976657279" fill="#8C4FFF">
            <rect id="state-6170706c69636174696f6e-planorama-icon-aws-vpc-local-52656374616e676c65" x="0" y="0" width="64" height="64"></rect>
        </g>
        <path d="M48,33.9772867 L44.499,32.5082867 L44.499,46.8782867 C47.906,46.1472867 47.998,42.1812867 48,41.9952867 L48,33.9772867 Z M42.499,46.9232867 L42.499,32.5082867 L39,33.9772867 L39,42.0042867 C39.008,42.4662867 39.183,46.3392867 42.499,46.9232867 L42.499,46.9232867 Z M43.112,30.0822867 C43.358,29.9772867 43.638,29.9782867 43.886,30.0812867 L49.387,32.3902867 C49.759,32.5462867 50,32.9092867 50,33.3122867 L50,42.0042867 C49.978,44.4312867 48.562,49.0042867 43.37,49.0042867 C38.393,49.0042867 37.026,44.4322867 37,42.0152867 L37,33.3122867 C37,32.9092867 37.241,32.5462867 37.613,32.3902867 L43.112,30.0822867 Z M52,30.7922867 L43.492,27.0922867 L34.9998912,30.6682867 L34.9998912,41.0252867 C34.999,41.0902867 34.963,46.0092867 37.807,48.8942867 C39.187,50.2942867 41.059,51.0042867 43.37,51.0042867 C51.808,51.0042867 51.996,41.4252867 52,41.0182867 L52,30.7922867 Z M54,30.1362867 L54,41.0252867 C53.973,45.1732867 51.716,53.0042867 43.37,53.0042867 C40.498,53.0042867 38.145,52.0902867 36.373,50.2882867 C32.941,46.7972867 32.996,41.2432867 33,41.0082867 L33,30.0042867 C33,29.6022867 33.241,29.2382867 33.612,29.0822867 L43.111,25.0822867 C43.363,24.9762867 43.647,24.9782867 43.897,25.0872867 L53.398,29.2192867 C53.764,29.3782867 54,29.7382867 54,30.1362867 L54,30.1362867 Z M19,38.0042867 L30,38.0042867 L30,40.0042867 L19,40.0042867 C14.216,40.0042867 10.271,36.4832867 10.02,31.9882867 C10.002,31.8132867 10,31.5992867 10,31.3852867 C10,26.0862867 13.654,24.0382867 15.919,23.2782867 C15.902,23.0632867 15.891,22.8432867 15.891,22.6262867 C15.891,18.0392867 18.658,13.7012867 22.621,12.0792867 C27.58,10.0492867 33.235,10.9372867 36.695,14.2852867 C37.718,15.2822867 38.604,16.5962867 39.343,18.2062867 C40.299,17.4222867 41.392,17.0042867 42.523,17.0042867 C45.234,17.0042867 48.281,19.2962867 48.9,23.0622867 C51.069,23.3442867 52.936,24.6392867 53.896,26.5822867 L52.104,27.4692867 C51.34,25.9252867 49.806,25.0042867 48,25.0042867 C47.471,25.0042867 47.033,24.5912867 47.002,24.0632867 C46.807,20.7622867 44.275,19.0042867 42.523,19.0042867 C41.55,19.0042867 40.582,19.5742867 39.797,20.6082867 C39.575,20.8992867 39.215,21.0482867 38.852,20.9932867 C38.49,20.9382867 38.187,20.6912867 38.062,20.3482867 C37.327,18.3462867 36.398,16.7892867 35.302,15.7202867 C32.406,12.9172867 27.615,12.1962867 23.379,13.9302867 C19.775,15.4052867 17.891,19.4212867 17.891,22.6262867 C17.891,23.0262867 17.947,23.5032867 17.993,23.8862867 C18.053,24.3862867 17.73,24.8532867 17.24,24.9752867 C15.283,25.4592867 12,26.9372867 12,31.3852867 C12,31.5352867 11.998,31.6852867 12.013,31.8362867 C12.209,35.3122867 15.276,38.0042867 19,38.0042867 L19,38.0042867 Z" id="state-6170706c69636174696f6e-planorama-icon-aws-vpc-local-416d617a6f6e2d5669727475616c2d507269766174652d436c6f75645f49636f6e5f34385f5371756964" fill="#FFFFFF"></path>
    </g>
</g></symbol></defs>
<rect width="100%" height="100%" fill="#ffffff"/>
<g font-family="ui-monospace, SFMono-Regular, Consolas, monospace">
<text x="40" y="45" font-size="25" font-weight="700" fill="#0f172a">Terraform plan</text>
<text x="40" y="73" font-size="13" fill="#475569">2 resources · 1 reference edges · dependency → dependent</text>
<rect x="40" y="100" width="12" height="12" fill="#ecfdf5" stroke="#047857"/><text x="59" y="111" font-size="12" fill="#047857">create (2)</text>
<rect x="180" y="100" width="12" height="12" fill="#eff6ff" stroke="#1d4ed8"/><text x="199" y="111" font-size="12" fill="#1d4ed8">update (0)</text>
<rect x="320" y="100" width="12" height="12" fill="#fef2f2" stroke="#b91c1c"/><text x="339" y="111" font-size="12" fill="#b91c1c">delete (0)</text>
<rect x="460" y="100" width="12" height="12" fill="#fff7ed" stroke="#c2410c"/><text x="479" y="111" font-size="12" fill="#c2410c">replace (0)</text>
<rect x="600" y="100" width="12" height="12" fill="#faf5ff" stroke="#7e22ce"/><text x="619" y="111" font-size="12" fill="#7e22ce">read (0)</text>
<rect x="740" y="100" width="12" height="12" fill="#f8fafc" stroke="#64748b"/><text x="759" y="111" font-size="12" fill="#64748b">unchanged (0)</text>
<rect x="880" y="100" width="12" height="12" fill="#fefce8" stroke="#854d0e"/><text x="899" y="111" font-size="12" fill="#854d0e">other (0)</text>
<g id="state-6170706c69636174696f6e-plan-status" data-plan-applyable="false" data-plan-complete="false" data-plan-errored="true">
<text x="40" y="137" font-size="12" fill="#475569">Plan status: applyable: false complete: false errored: true</text>
</g>
<g id="state-6170706c69636174696f6e-plan-checks"><title>Object: fail
  unassociated instance: fail
</title><text x="40" y="161" font-size="12" fill="#475569">Checks (objects): 0 pass / 1 fail / 0 error / 0 unknown / 0 other / 0 unavailable</text></g>
<g transform="translate(0 24)">
<rect x="35" y="160" width="970" height="200" rx="12" fill="#f8fafc" stroke="#cbd5e1" stroke-dasharray="5 4"/><text x="52" y="185" font-size="13" font-weight="700" fill="#475569"><title>root</title>root</text>
<path d="M 380 256 L 480 256 " data-edge-kind="dependency" data-source="state-6170706c69636174696f6e-resource-6177735f73656375726974795f67726f75702e617070-current" data-target="state-6170706c69636174696f6e-resource-6177735f696e7374616e63652e617070-current" fill="none" stroke="#94a3b8" stroke-width="1.5" stroke-linejoin="round" marker-end="url(#state-6170706c69636174696f6e-arrow)"><title>aws_security_group.app → aws_instance.app</title></path>
<g id="state-6170706c69636174696f6e-resource-6177735f696e7374616e63652e617070-current" data-qualified-address="module.root.aws_instance.app" data-terraform-address="aws_instance.app"><title>module.root.aws_instance.app — create</title>
<rect x="480" y="208" width="320" height="96" rx="8" fill="#ecfdf5" stroke="#047857" stroke-width="1.5" data-mode="managed"/>
<text x="492" y="228" font-size="11" fill="#047857">aws_instance · create</text>
<use href="#state-6170706c69636174696f6e-planorama-icon-aws-ec2" x="492" y="236" width="24" height="24" aria-hidden="true"/><text x="524" y="253" font-size="13" fill="#0f172a">module.root.aws_instance.app</text>
</g>
<g id="state-6170706c69636174696f6e-resource-6177735f73656375726974795f67726f75702e617070-current" data-qualified-address="module.root.aws_security_group.app" data-terraform-address="aws_security_group.app"><title>module.root.aws_security_group.app — create</title>
<rect x="60" y="208" width="320" height="96" rx="8" fill="#ecfdf5" stroke="#047857" stroke-width="1.5" data-mode="managed"/>
<text x="72" y="228" font-size="11" fill="#047857">aws_security_group · create</text>
<use href="#state-6170706c69636174696f6e-planorama-icon-aws-vpc" x="72" y="236" width="24" height="24" aria-hidden="true"/><text x="104" y="253" font-size="13" fill="#0f172a">module.root.aws_security_group.ap</text>
<text x="104" y="273" font-size="13" fill="#0f172a">p</text>
<text x="72" y="292" font-size="10" fill="#64748b" data-role="policy"><title>root</title>policy · root</text>
</g>
</g>
</g>
</svg>
</g>
<g id="state-6e6574776f726b-state" data-state-id="network"><text x="40" y="593" font-family="ui-monospace, Consolas, monospace" font-size="20" font-weight="700" fill="#0f172a">State: network</text>
<svg y="608" xmlns="http://www.w3.org/2000/svg" width="1040" height="592" viewBox="0 0 1040 592" role="img" aria-labelledby="state-6e6574776f726b-title state-6e6574776f726b-description">
<title id="state-6e6574776f726b-title">Terraform plan</title>
<desc id="state-6e6574776f726b-description">3 resources, 1 reference edges. Arrows point from dependencies to dependent resources. References are conservative, not Terraform execution order. Thin solid: dependency. Dashed: association. Thick dotted: connection. Nested boxes: containment. Edge color preserves the Terraform action when available.</desc>
<defs><marker id="state-6e6574776f726b-arrow" viewBox="0 0 10 10" refX="9" refY="5" markerWidth="7" markerHeight="7" orient="auto-start-reverse"><path d="M 0 0 L 10 5 L 0 10 z" fill="#94a3b8"/></marker><metadata id="state-6e6574776f726b-planorama-icons-license">AWS Architecture Icons, release 07312026.
Copyright Amazon Web Services, Inc. or its affiliates. All rights reserved.
AWS service names and artwork are trademarks or other proprietary assets of AWS.
Source: https://aws.amazon.com/architecture/icons/
Terms: https://aws.amazon.com/terms/
These assets are used to illustrate AWS architecture. They are not licensed
under Planorama&apos;s original glyph MIT notice or any repository code license.
No AWS endorsement is implied. Consult the AWS terms for other uses.
</metadata><symbol id="state-6e6574776f726b-planorama-icon-aws-ec2" viewBox="0 0 64 64"><g>
    <title>Icon-Architecture/48/Arch_Amazon-EC2_48</title>
    <g id="state-6e6574776f726b-planorama-icon-aws-ec2-local-49636f6e2d4172636869746563747572652f34382f417263685f416d617a6f6e2d4543325f3438" stroke="none" stroke-width="1" fill="none" fill-rule="evenodd">
        <g id="state-6e6574776f726b-planorama-icon-aws-ec2-local-49636f6e2d4172636869746563747572652d42472f34382f436f6d70757465" fill="#ED7100">
            <rect id="state-6e6574776f726b-planorama-icon-aws-ec2-local-52656374616e676c65" x="0" y="0" width="64" height="64"></rect>
        </g>
        <path d="M22,41 L41,41 L41,23 L22,23 L22,41 Z M43,23 L46,23 L46,25 L43,25 L43,27 L46,27 L46,29 L43,29 L43,31 L46,31 L46,33 L43,33 L43,36 L46,36 L46,38 L43,38 L43,40 L46,40 L46,42 L42.863,42 C42.608,42.587 42.023,43 41.344,43 L41,43 L41,46 L39,46 L39,43 L37,43 L37,46 L35,46 L35,43 L33,43 L33,46 L31,46 L31,43 L29,43 L29,46 L27,46 L27,43 L24,43 L24,46 L22,46 L22,43 L21.656,43 C20.977,43 20.392,42.587 20.137,42 L18,42 L18,40 L20,40 L20,38 L18,38 L18,36 L20,36 L20,33 L18,33 L18,31 L20,31 L20,29 L18,29 L18,27 L20,27 L20,25 L18,25 L18,23 L20,23 L20,22.656 C20,21.743 20.743,21 21.656,21 L22,21 L22,18 L24,18 L24,21 L27,21 L27,18 L29,18 L29,21 L31,21 L31,18 L33,18 L33,21 L35,21 L35,18 L37,18 L37,21 L39,21 L39,18 L41,18 L41,21 L41.344,21 C42.257,21 43,21.743 43,22.656 L43,23 Z M32,52 L12,52 L12,32 L16,32 L16,30 L11.843,30 C10.826,30 10,30.827 10,31.843 L10,52.157 C10,53.173 10.826,54 11.843,54 L32.157,54 C33.174,54 34,53.173 34,52.157 L34,48 L32,48 L32,52 Z M54,11.843 L54,32.157 C54,33.173 53.174,34 52.157,34 L48,34 L48,32 L52,32 L52,12 L32,12 L32,16 L30,16 L30,11.843 C30,10.827 30.826,10 31.843,10 L52.157,10 C53.174,10 54,10.827 54,11.843 L54,11.843 Z" id="state-6e6574776f726b-planorama-icon-aws-ec2-local-416d617a6f6e2d4543325f49636f6e5f34385f5371756964" fill="#FFFFFF"></path>
    </g>
</g></symbol><symbol id="state-6e6574776f726b-planorama-icon-aws-vpc" viewBox="0 0 64 64"><g>
    <title>Icon-Architecture/48/Arch_Amazon-Virtual-Private-Cloud_48</title>
    <g id="state-6e6574776f726b-planorama-icon-aws-vpc-local-49636f6e2d4172636869746563747572652f34382f417263685f416d617a6f6e2d5669727475616c2d507269766174652d436c6f75645f3438" stroke="none" stroke-width="1" fill="none" fill-rule="evenodd">
        <g id="state-6e6574776f726b-planorama-icon-aws-vpc-local-49636f6e2d4172636869746563747572652d42472f34382f4e6574776f726b696e672d436f6e74656e742d44656c6976657279" fill="#8C4FFF">
            <rect id="state-6e6574776f726b-planorama-icon-aws-vpc-local-52656374616e676c65" x="0" y="0" width="64" height="64"></rect>
        </g>
        <path d="M48,33.9772867 L44.499,32.5082867 L44.499,46.8782867 C47.906,46.1472867 47.998,42.1812867 48,41.9952867 L48,33.9772867 Z M42.499,46.9232867 L42.499,32.5082867 L39,33.9772867 L39,42.0042867 C39.008,42.4662867 39.183,46.3392867 42.499,46.9232867 L42.499,46.9232867 Z M43.112,30.0822867 C43.358,29.9772867 43.638,29.9782867 43.886,30.0812867 L49.387,32.3902867 C49.759,32.5462867 50,32.9092867 50,33.3122867 L50,42.0042867 C49.978,44.4312867 48.562,49.0042867 43.37,49.0042867 C38.393,49.0042867 37.026,44.4322867 37,42.0152867 L37,33.3122867 C37,32.9092867 37.241,32.5462867 37.613,32.3902867 L43.112,30.0822867 Z M52,30.7922867 L43.492,27.0922867 L34.9998912,30.6682867 L34.9998912,41.0252867 C34.999,41.0902867 34.963,46.0092867 37.807,48.8942867 C39.187,50.2942867 41.059,51.0042867 43.37,51.0042867 C51.808,51.0042867 51.996,41.4252867 52,41.0182867 L52,30.7922867 Z M54,30.1362867 L54,41.0252867 C53.973,45.1732867 51.716,53.0042867 43.37,53.0042867 C40.498,53.0042867 38.145,52.0902867 36.373,50.2882867 C32.941,46.7972867 32.996,41.2432867 33,41.0082867 L33,30.0042867 C33,29.6022867 33.241,29.2382867 33.612,29.0822867 L43.111,25.0822867 C43.363,24.9762867 43.647,24.9782867 43.897,25.0872867 L53.398,29.2192867 C53.764,29.3782867 54,29.7382867 54,30.1362867 L54,30.1362867 Z M19,38.0042867 L30,38.0042867 L30,40.0042867 L19,40.0042867 C14.216,40.0042867 10.271,36.4832867 10.02,31.9882867 C10.002,31.8132867 10,31.5992867 10,31.3852867 C10,26.0862867 13.654,24.0382867 15.919,23.2782867 C15.902,23.0632867 15.891,22.8432867 15.891,22.6262867 C15.891,18.0392867 18.658,13.7012867 22.621,12.0792867 C27.58,10.0492867 33.235,10.9372867 36.695,14.2852867 C37.718,15.2822867 38.604,16.5962867 39.343,18.2062867 C40.299,17.4222867 41.392,17.0042867 42.523,17.0042867 C45.234,17.0042867 48.281,19.2962867 48.9,23.0622867 C51.069,23.3442867 52.936,24.6392867 53.896,26.5822867 L52.104,27.4692867 C51.34,25.9252867 49.806,25.0042867 48,25.0042867 C47.471,25.0042867 47.033,24.5912867 47.002,24.0632867 C46.807,20.7622867 44.275,19.0042867 42.523,19.0042867 C41.55,19.0042867 40.582,19.5742867 39.797,20.6082867 C39.575,20.8992867 39.215,21.0482867 38.852,20.9932867 C38.49,20.9382867 38.187,20.6912867 38.062,20.3482867 C37.327,18.3462867 36.398,16.7892867 35.302,15.7202867 C32.406,12.9172867 27.615,12.1962867 23.379,13.9302867 C19.775,15.4052867 17.891,19.4212867 17.891,22.6262867 C17.891,23.0262867 17.947,23.5032867 17.993,23.8862867 C18.053,24.3862867 17.73,24.8532867 17.24,24.9752867 C15.283,25.4592867 12,26.9372867 12,31.3852867 C12,31.5352867 11.998,31.6852867 12.013,31.8362867 C12.209,35.3122867 15.276,38.0042867 19,38.0042867 L19,38.0042867 Z" id="state-6e6574776f726b-planorama-icon-aws-vpc-local-416d617a6f6e2d5669727475616c2d507269766174652d436c6f75645f49636f6e5f34385f5371756964" fill="#FFFFFF"></path>
    </g>
</g></symbol></defs>
<rect width="100%" height="100%" fill="#ffffff"/>
<g font-family="ui-monospace, SFMono-Regular, Consolas, monospace">
<text x="40" y="45" font-size="25" font-weight="700" fill="#0f172a">Terraform plan</text>
<text x="40" y="73" font-size="13" fill="#475569">3 resources · 1 reference edges · dependency → dependent</text>
<rect x="40" y="100" width="12" height="12" fill="#ecfdf5" stroke="#047857"/><text x="59" y="111" font-size="12" fill="#047857">create (0)</text>
<rect x="180" y="100" width="12" height="12" fill="#eff6ff" stroke="#1d4ed8"/><text x="199" y="111" font-size="12" fill="#1d4ed8">update (1)</text>
<rect x="320" y="100" width="12" height="12" fill="#fef2f2" stroke="#b91c1c"/><text x="339" y="111" font-size="12" fill="#b91c1c">delete (1)</text>
<rect x="460" y="100" width="12" height="12" fill="#fff7ed" stroke="#c2410c"/><text x="479" y="111" font-size="12" fill="#c2410c">replace (0)</text>
<rect x="600" y="100" width="12" height="12" fill="#faf5ff" stroke="#7e22ce"/><text x="619" y="111" font-size="12" fill="#7e22ce">read (0)</text>
<rect x="740" y="100" width="12" height="12" fill="#f8fafc" stroke="#64748b"/><text x="759" y="111" font-size="12" fill="#64748b">unchanged (1)</text>
<rect x="880" y="100" width="12" height="12" fill="#fefce8" stroke="#854d0e"/><text x="899" y="111" font-size="12" fill="#854d0e">other (0)</text>
<g id="state-6e6574776f726b-plan-status" data-plan-applyable="true" data-plan-complete="true" data-plan-errored="false">
<text x="40" y="137" font-size="12" fill="#475569">Plan status: applyable: true complete: true errored: false</text>
</g>
<g id="state-6e6574776f726b-plan-checks"><title>Object: pass
</title><text x="40" y="161" font-size="12" fill="#475569">Checks (objects): 1 pass / 0 fail / 0 error / 0 unknown / 0 other / 0 unavailable</text></g>
<g transform="translate(0 24)">
<rect x="35" y="160" width="970" height="344" rx="12" fill="#f8fafc" stroke="#cbd5e1" stroke-dasharray="5 4"/><text x="52" y="185" font-size="13" font-weight="700" fill="#475569"><title>root</title>root</text>
<path d="M 380 256 L 480 256 " data-edge-kind="dependency" data-source="state-6e6574776f726b-resource-6177735f73656375726974795f67726f75702e617070-current" data-target="state-6e6574776f726b-resource-6177735f696e7374616e63652e617070-current" fill="none" stroke="#94a3b8" stroke-width="1.5" stroke-linejoin="round" marker-end="url(#state-6e6574776f726b-arrow)"><title>aws_security_group.app → aws_instance.app</title></path>
<g id="state-6e6574776f726b-resource-6177735f696e7374616e63652e617070-current" data-qualified-address="module.root.aws_instance.app" data-terraform-address="aws_instance.app"><title>module.root.aws_instance.app — unchanged</title>
<rect x="480" y="208" width="320" height="96" rx="8" fill="#f8fafc" stroke="#64748b" stroke-width="1.5" data-mode="managed"/>
<text x="492" y="228" font-size="11" fill="#64748b">aws_instance · unchanged</text>
<use href="#state-6e6574776f726b-planorama-icon-aws-ec2" x="492" y="236" width="24" height="24" aria-hidden="true"/><text x="524" y="253" font-size="13" fill="#0f172a">module.root.aws_instance.app</text>
</g>
<g id="state-6e6574776f726b-resource-6177735f73656375726974795f67726f75702e617070-current" data-qualified-address="module.root.aws_security_group.app" data-terraform-address="aws_security_group.app"><title>module.root.aws_security_group.app — update</title>
<rect x="60" y="208" width="320" height="96" rx="8" fill="#eff6ff" stroke="#1d4ed8" stroke-width="1.5" data-mode="managed"/>
<text x="72" y="228" font-size="11" fill="#1d4ed8">aws_security_group · update</text>
<use href="#state-6e6574776f726b-planorama-icon-aws-vpc" x="72" y="236" width="24" height="24" aria-hidden="true"/><text x="104" y="253" font-size="13" fill="#0f172a">module.root.aws_security_group.ap</text>
<text x="104" y="273" font-size="13" fill="#0f172a">p</text>
<text x="72" y="292" font-size="10" fill="#64748b" data-role="policy"><title>root</title>policy · root</text>
</g>
<g id="state-6e6574776f726b-resource-6177735f73656375726974795f67726f75702e617070-deposed-6f6c64" data-qualified-address="module.root.aws_security_group.app" data-terraform-address="aws_security_group.app" data-deposed-key="old"><title>module.root.aws_security_group.app — delete</title>
<rect x="60" y="352" width="320" height="96" rx="8" fill="#fef2f2" stroke="#b91c1c" stroke-width="1.5" data-mode="managed"/>
<text x="72" y="372" font-size="11" fill="#b91c1c">aws_security_group · delete</text>
<use href="#state-6e6574776f726b-planorama-icon-aws-vpc" x="72" y="380" width="24" height="24" aria-hidden="true"/><text x="104" y="397" font-size="13" fill="#0f172a">module.root.aws_security_group.ap</text>
<text x="104" y="417" font-size="13" fill="#0f172a">p</text>
<text x="72" y="436" font-size="10" fill="#64748b" data-role="policy"><title>root</title>policy · root</text>
</g>
</g>
</g>
</svg>
</g>
</svg>
