<svg xmlns="http://www.w3.org/2000/svg" width="1848" height="2920" viewBox="0 0 1848 2920" role="img" aria-labelledby="title description">
<title id="title">Terraform plan</title>
<desc id="description">16 resources, 28 reference edges. Arrows point from dependencies to dependent resources. References are conservative, not Terraform execution order.</desc>
<defs><marker id="arrow" viewBox="0 0 10 10" refX="9" refY="5" markerWidth="7" markerHeight="7" orient="auto-start-reverse"><path d="M 0 0 L 10 5 L 0 10 z" fill="#94a3b8"/></marker></defs>
<rect width="100%" height="100%" fill="#ffffff"/>
<g font-family="ui-monospace, SFMono-Regular, Consolas, monospace">
<text x="40" y="45" font-size="25" font-weight="700" fill="#0f172a">Terraform plan</text>
<text x="40" y="73" font-size="13" fill="#475569">16 resources · 28 reference edges · dependency → dependent</text>
<rect x="40" y="100" width="12" height="12" fill="#ecfdf5" stroke="#047857"/><text x="59" y="111" font-size="12" fill="#047857">create (14)</text>
<rect x="180" y="100" width="12" height="12" fill="#eff6ff" stroke="#1d4ed8"/><text x="199" y="111" font-size="12" fill="#1d4ed8">update (0)</text>
<rect x="320" y="100" width="12" height="12" fill="#fef2f2" stroke="#b91c1c"/><text x="339" y="111" font-size="12" fill="#b91c1c">delete (0)</text>
<rect x="460" y="100" width="12" height="12" fill="#fff7ed" stroke="#c2410c"/><text x="479" y="111" font-size="12" fill="#c2410c">replace (0)</text>
<rect x="600" y="100" width="12" height="12" fill="#faf5ff" stroke="#7e22ce"/><text x="619" y="111" font-size="12" fill="#7e22ce">read (1)</text>
<rect x="740" y="100" width="12" height="12" fill="#f8fafc" stroke="#64748b"/><text x="759" y="111" font-size="12" fill="#64748b">unchanged (1)</text>
<rect x="880" y="100" width="12" height="12" fill="#fefce8" stroke="#854d0e"/><text x="899" y="111" font-size="12" fill="#854d0e">other (0)</text>
<g id="plan-status" data-plan-applyable="true" data-plan-complete="true" data-plan-errored="false">
<text x="40" y="137" font-size="12" fill="#475569">Plan status: applyable: true complete: true errored: false</text>
</g>
<rect x="35" y="160" width="1778" height="1064" rx="12" fill="#f8fafc" stroke="#cbd5e1" stroke-dasharray="5 4"/><text x="52" y="185" font-size="13" font-weight="700" fill="#475569"><title>root</title>root</text>
<rect x="35" y="1248" width="1778" height="200" rx="12" fill="#f8fafc" stroke="#cbd5e1" stroke-dasharray="5 4"/><text x="52" y="1273" font-size="13" font-weight="700" fill="#475569"><title>module.replica[0]</title>module.replica[0]</text>
<rect x="35" y="1472" width="1778" height="200" rx="12" fill="#f8fafc" stroke="#cbd5e1" stroke-dasharray="5 4"/><text x="52" y="1497" font-size="13" font-weight="700" fill="#475569"><title>module.replica[1]</title>module.replica[1]</text>
<rect x="35" y="1696" width="1778" height="344" rx="12" fill="#f8fafc" stroke="#cbd5e1" stroke-dasharray="5 4"/><text x="52" y="1721" font-size="13" font-weight="700" fill="#475569"><title>module.service[&quot;api&quot;]</title>module.service[&quot;api&quot;]</text>
<rect x="35" y="2064" width="1778" height="200" rx="12" fill="#f8fafc" stroke="#cbd5e1" stroke-dasharray="5 4"/><text x="52" y="2089" font-size="13" font-weight="700" fill="#475569"><title>module.service[&quot;api&quot;].module.nested</title>module.service[&quot;api&quot;].module.nested</text>
<rect x="35" y="2288" width="1778" height="344" rx="12" fill="#f8fafc" stroke="#cbd5e1" stroke-dasharray="5 4"/><text x="52" y="2313" font-size="13" font-weight="700" fill="#475569"><title>module.service[&quot;web&quot;]</title>module.service[&quot;web&quot;]</text>
<rect x="35" y="2656" width="1778" height="200" rx="12" fill="#f8fafc" stroke="#cbd5e1" stroke-dasharray="5 4"/><text x="52" y="2681" font-size="13" font-weight="700" fill="#475569"><title>module.service[&quot;web&quot;].module.nested</title>module.service[&quot;web&quot;].module.nested</text>
<path d="M 888 400 L 904 400 Q 912 400 912 392 L 912 273 Q 912 265 920 265 L 988 265 " fill="none" stroke="#94a3b8" stroke-width="1.5" stroke-linejoin="round" marker-end="url(#arrow)"><title>data.terraform_remote_state.after_ready → terraform_data.from_state</title></path>
<path d="M 380 256 L 396 256 Q 404 256 404 248 L 404 200 Q 404 192 412 192 L 904 192 Q 912 192 912 200 L 912 238 Q 912 246 920 246 L 988 246 " fill="none" stroke="#94a3b8" stroke-width="1.5" stroke-linejoin="round" marker-end="url(#arrow)"><title>data.terraform_remote_state.existing → terraform_data.from_state</title></path>
<path d="M 1308 2160 L 1324 2160 Q 1332 2160 1332 2152 L 1332 260 Q 1332 252 1340 252 L 1408 252 " fill="none" stroke="#94a3b8" stroke-width="1.5" stroke-linejoin="round" marker-end="url(#arrow)"><title>module.service[&quot;api&quot;].module.nested.terraform_data.leaf → terraform_data.consumer</title></path>
<path d="M 888 1945 L 904 1945 Q 912 1945 912 1953 L 912 2166 Q 912 2174 920 2174 L 988 2174 " fill="none" stroke="#94a3b8" stroke-width="1.5" stroke-linejoin="round" marker-end="url(#arrow)"><title>module.service[&quot;api&quot;].terraform_data.worker[0] → module.service[&quot;api&quot;].module.nested.terraform_data.leaf</title></path>
<path d="M 888 1926 L 914 1926 Q 922 1926 922 1918 L 922 344 Q 922 336 930 336 L 1334 336 Q 1342 336 1342 328 L 1342 252 Q 1342 244 1350 244 L 1408 244 " fill="none" stroke="#94a3b8" stroke-width="1.5" stroke-linejoin="round" marker-end="url(#arrow)"><title>module.service[&quot;api&quot;].terraform_data.worker[0] → terraform_data.consumer</title></path>
<path d="M 888 1792 L 904 1792 Q 912 1792 912 1784 L 912 488 Q 912 480 920 480 L 1344 480 Q 1352 480 1352 472 L 1352 244 Q 1352 236 1360 236 L 1408 236 " fill="none" stroke="#94a3b8" stroke-width="1.5" stroke-linejoin="round" marker-end="url(#arrow)"><title>module.service[&quot;api&quot;].terraform_data.worker[1] → terraform_data.consumer</title></path>
<path d="M 1308 2752 L 1354 2752 Q 1362 2752 1362 2744 L 1362 284 Q 1362 276 1370 276 L 1408 276 " fill="none" stroke="#94a3b8" stroke-width="1.5" stroke-linejoin="round" marker-end="url(#arrow)"><title>module.service[&quot;web&quot;].module.nested.terraform_data.leaf → terraform_data.consumer</title></path>
<path d="M 888 2537 L 904 2537 Q 912 2537 912 2545 L 912 2758 Q 912 2766 920 2766 L 988 2766 " fill="none" stroke="#94a3b8" stroke-width="1.5" stroke-linejoin="round" marker-end="url(#arrow)"><title>module.service[&quot;web&quot;].terraform_data.worker[0] → module.service[&quot;web&quot;].module.nested.terraform_data.leaf</title></path>
<path d="M 888 2518 L 904 2518 Q 912 2518 912 2510 L 912 2248 Q 912 2240 920 2240 L 1364 2240 Q 1372 2240 1372 2232 L 1372 276 Q 1372 268 1380 268 L 1408 268 " fill="none" stroke="#94a3b8" stroke-width="1.5" stroke-linejoin="round" marker-end="url(#arrow)"><title>module.service[&quot;web&quot;].terraform_data.worker[0] → terraform_data.consumer</title></path>
<path d="M 888 2384 L 914 2384 Q 922 2384 922 2376 L 922 2328 Q 922 2320 930 2320 L 1374 2320 Q 1382 2320 1382 2312 L 1382 268 Q 1382 260 1390 260 L 1408 260 " fill="none" stroke="#94a3b8" stroke-width="1.5" stroke-linejoin="round" marker-end="url(#arrow)"><title>module.service[&quot;web&quot;].terraform_data.worker[1] → terraform_data.consumer</title></path>
<path d="M 380 400 L 396 400 Q 404 400 404 408 L 404 536 Q 404 544 412 544 L 568 544 " fill="none" stroke="#94a3b8" stroke-width="1.5" stroke-linejoin="round" marker-end="url(#arrow)"><title>terraform_data.independent → terraform_data.explicit</title></path>
<path d="M 380 666 L 396 666 Q 404 666 404 674 L 404 1345 Q 404 1353 412 1353 L 568 1353 " fill="none" stroke="#94a3b8" stroke-width="1.5" stroke-linejoin="round" marker-end="url(#arrow)"><title>terraform_data.network → module.replica[0].terraform_data.leaf</title></path>
<path d="M 380 672 L 406 672 Q 414 672 414 680 L 414 1569 Q 414 1577 422 1577 L 568 1577 " fill="none" stroke="#94a3b8" stroke-width="1.5" stroke-linejoin="round" marker-end="url(#arrow)"><title>terraform_data.network → module.replica[1].terraform_data.leaf</title></path>
<path d="M 380 691 L 416 691 Q 424 691 424 699 L 424 760 Q 424 768 432 768 L 924 768 Q 932 768 932 776 L 932 2152 Q 932 2160 940 2160 L 988 2160 " fill="none" stroke="#94a3b8" stroke-width="1.5" stroke-linejoin="round" marker-end="url(#arrow)"><title>terraform_data.network → module.service[&quot;api&quot;].module.nested.terraform_data.leaf</title></path>
<path d="M 380 684 L 426 684 Q 434 684 434 692 L 434 1937 Q 434 1945 442 1945 L 568 1945 " fill="none" stroke="#94a3b8" stroke-width="1.5" stroke-linejoin="round" marker-end="url(#arrow)"><title>terraform_data.network → module.service[&quot;api&quot;].terraform_data.worker[0]</title></path>
<path d="M 380 678 L 436 678 Q 444 678 444 686 L 444 1793 Q 444 1801 452 1801 L 568 1801 " fill="none" stroke="#94a3b8" stroke-width="1.5" stroke-linejoin="round" marker-end="url(#arrow)"><title>terraform_data.network → module.service[&quot;api&quot;].terraform_data.worker[1]</title></path>
<path d="M 380 709 L 446 709 Q 454 709 454 717 L 454 2456 Q 454 2464 462 2464 L 914 2464 Q 922 2464 922 2472 L 922 2744 Q 922 2752 930 2752 L 988 2752 " fill="none" stroke="#94a3b8" stroke-width="1.5" stroke-linejoin="round" marker-end="url(#arrow)"><title>terraform_data.network → module.service[&quot;web&quot;].module.nested.terraform_data.leaf</title></path>
<path d="M 380 703 L 456 703 Q 464 703 464 711 L 464 2529 Q 464 2537 472 2537 L 568 2537 " fill="none" stroke="#94a3b8" stroke-width="1.5" stroke-linejoin="round" marker-end="url(#arrow)"><title>terraform_data.network → module.service[&quot;web&quot;].terraform_data.worker[0]</title></path>
<path d="M 380 697 L 466 697 Q 474 697 474 705 L 474 2385 Q 474 2393 482 2393 L 568 2393 " fill="none" stroke="#94a3b8" stroke-width="1.5" stroke-linejoin="round" marker-end="url(#arrow)"><title>terraform_data.network → module.service[&quot;web&quot;].terraform_data.worker[1]</title></path>
<path d="M 380 521 L 406 521 Q 414 521 414 513 L 414 408 Q 414 400 422 400 L 568 400 " fill="none" stroke="#94a3b8" stroke-width="1.5" stroke-linejoin="round" marker-end="url(#arrow)"><title>terraform_data.ready → data.terraform_remote_state.after_ready</title></path>
<path d="M 380 527 L 476 527 Q 484 527 484 535 L 484 1326 Q 484 1334 492 1334 L 568 1334 " fill="none" stroke="#94a3b8" stroke-width="1.5" stroke-linejoin="round" marker-end="url(#arrow)"><title>terraform_data.ready → module.replica[0].terraform_data.leaf</title></path>
<path d="M 380 532 L 486 532 Q 494 532 494 540 L 494 1550 Q 494 1558 502 1558 L 568 1558 " fill="none" stroke="#94a3b8" stroke-width="1.5" stroke-linejoin="round" marker-end="url(#arrow)"><title>terraform_data.ready → module.replica[1].terraform_data.leaf</title></path>
<path d="M 380 549 L 396 549 Q 404 549 404 557 L 404 616 Q 404 624 412 624 L 934 624 Q 942 624 942 632 L 942 2138 Q 942 2146 950 2146 L 988 2146 " fill="none" stroke="#94a3b8" stroke-width="1.5" stroke-linejoin="round" marker-end="url(#arrow)"><title>terraform_data.ready → module.service[&quot;api&quot;].module.nested.terraform_data.leaf</title></path>
<path d="M 380 544 L 496 544 Q 504 544 504 552 L 504 1918 Q 504 1926 512 1926 L 568 1926 " fill="none" stroke="#94a3b8" stroke-width="1.5" stroke-linejoin="round" marker-end="url(#arrow)"><title>terraform_data.ready → module.service[&quot;api&quot;].terraform_data.worker[0]</title></path>
<path d="M 380 538 L 506 538 Q 514 538 514 546 L 514 1774 Q 514 1782 522 1782 L 568 1782 " fill="none" stroke="#94a3b8" stroke-width="1.5" stroke-linejoin="round" marker-end="url(#arrow)"><title>terraform_data.ready → module.service[&quot;api&quot;].terraform_data.worker[1]</title></path>
<path d="M 380 566 L 516 566 Q 524 566 524 574 L 524 904 Q 524 912 532 912 L 944 912 Q 952 912 952 920 L 952 2730 Q 952 2738 960 2738 L 988 2738 " fill="none" stroke="#94a3b8" stroke-width="1.5" stroke-linejoin="round" marker-end="url(#arrow)"><title>terraform_data.ready → module.service[&quot;web&quot;].module.nested.terraform_data.leaf</title></path>
<path d="M 380 560 L 526 560 Q 534 560 534 568 L 534 2510 Q 534 2518 542 2518 L 568 2518 " fill="none" stroke="#94a3b8" stroke-width="1.5" stroke-linejoin="round" marker-end="url(#arrow)"><title>terraform_data.ready → module.service[&quot;web&quot;].terraform_data.worker[0]</title></path>
<path d="M 380 555 L 536 555 Q 544 555 544 563 L 544 2366 Q 544 2374 552 2374 L 568 2374 " fill="none" stroke="#94a3b8" stroke-width="1.5" stroke-linejoin="round" marker-end="url(#arrow)"><title>terraform_data.ready → module.service[&quot;web&quot;].terraform_data.worker[1]</title></path>
<g id="resource-0" data-qualified-address="module.root.data.terraform_remote_state.after_ready" data-terraform-address="data.terraform_remote_state.after_ready" data-action-reason="read_because_dependency_pending"><title>module.root.data.terraform_remote_state.after_ready — read; reason: read_because_dependency_pending</title>
<rect x="568" y="352" width="320" height="96" rx="8" fill="#faf5ff" stroke="#7e22ce" stroke-width="1.5" data-mode="data" stroke-dasharray="6 4"/>
<g data-external="true"><title>External resource: read by Terraform, not managed by this configuration</title><rect x="810" y="359" width="68" height="18" rx="4" fill="#e2e8f0"/><text x="816" y="372" font-size="10" fill="#334155">external</text></g><text x="580" y="372" font-size="11" fill="#7e22ce">terraform_remote_… · read</text>
<text x="580" y="397" font-size="13" fill="#0f172a">module.root.data.terraform_remote_s</text>
<text x="580" y="417" font-size="13" fill="#0f172a">tate.after_ready</text>
</g>
<g id="resource-1" data-qualified-address="module.root.data.terraform_remote_state.existing" data-terraform-address="data.terraform_remote_state.existing"><title>module.root.data.terraform_remote_state.existing — unchanged</title>
<rect x="60" y="208" width="320" height="96" rx="8" fill="#f8fafc" stroke="#64748b" stroke-width="1.5" data-mode="data" stroke-dasharray="6 4"/>
<g data-external="true"><title>External resource: read by Terraform, not managed by this configuration</title><rect x="302" y="215" width="68" height="18" rx="4" fill="#e2e8f0"/><text x="308" y="228" font-size="10" fill="#334155">external</text></g><text x="72" y="228" font-size="11" fill="#64748b">terraform_remote_… · unchanged</text>
<text x="72" y="253" font-size="13" fill="#0f172a">module.root.data.terraform_remote_s</text>
<text x="72" y="273" font-size="13" fill="#0f172a">tate.existing</text>
</g>
<g id="resource-2" data-qualified-address="module.replica[0].terraform_data.leaf" data-terraform-address="module.replica[0].terraform_data.leaf"><title>module.replica[0].terraform_data.leaf — create</title>
<rect x="568" y="1296" width="320" height="96" rx="8" fill="#ecfdf5" stroke="#047857" stroke-width="1.5" data-mode="managed"/>
<text x="580" y="1316" font-size="11" fill="#047857">terraform_data · create</text>
<text x="580" y="1341" font-size="13" fill="#0f172a">module.replica[0].terraform_data.le</text>
<text x="580" y="1361" font-size="13" fill="#0f172a">af</text>
</g>
<g id="resource-3" data-qualified-address="module.replica[1].terraform_data.leaf" data-terraform-address="module.replica[1].terraform_data.leaf"><title>module.replica[1].terraform_data.leaf — create</title>
<rect x="568" y="1520" width="320" height="96" rx="8" fill="#ecfdf5" stroke="#047857" stroke-width="1.5" data-mode="managed"/>
<text x="580" y="1540" font-size="11" fill="#047857">terraform_data · create</text>
<text x="580" y="1565" font-size="13" fill="#0f172a">module.replica[1].terraform_data.le</text>
<text x="580" y="1585" font-size="13" fill="#0f172a">af</text>
</g>
<g id="resource-4" data-qualified-address="module.service[&quot;api&quot;].module.nested.terraform_data.leaf" data-terraform-address="module.service[&quot;api&quot;].module.nested.terraform_data.leaf"><title>module.service[&quot;api&quot;].module.nested.terraform_data.leaf — create</title>
<rect x="988" y="2112" width="320" height="96" rx="8" fill="#ecfdf5" stroke="#047857" stroke-width="1.5" data-mode="managed"/>
<text x="1000" y="2132" font-size="11" fill="#047857">terraform_data · create</text>
<text x="1000" y="2157" font-size="13" fill="#0f172a">module.service[&quot;api&quot;].module.nested</text>
<text x="1000" y="2177" font-size="13" fill="#0f172a">.terraform_data.leaf</text>
</g>
<g id="resource-5" data-qualified-address="module.service[&quot;api&quot;].terraform_data.worker[0]" data-terraform-address="module.service[&quot;api&quot;].terraform_data.worker[0]"><title>module.service[&quot;api&quot;].terraform_data.worker[0] — create</title>
<rect x="568" y="1888" width="320" height="96" rx="8" fill="#ecfdf5" stroke="#047857" stroke-width="1.5" data-mode="managed"/>
<text x="580" y="1908" font-size="11" fill="#047857">terraform_data · create</text>
<text x="580" y="1933" font-size="13" fill="#0f172a">module.service[&quot;api&quot;].terraform_dat</text>
<text x="580" y="1953" font-size="13" fill="#0f172a">a.worker[0]</text>
</g>
<g id="resource-6" data-qualified-address="module.service[&quot;api&quot;].terraform_data.worker[1]" data-terraform-address="module.service[&quot;api&quot;].terraform_data.worker[1]"><title>module.service[&quot;api&quot;].terraform_data.worker[1] — create</title>
<rect x="568" y="1744" width="320" height="96" rx="8" fill="#ecfdf5" stroke="#047857" stroke-width="1.5" data-mode="managed"/>
<text x="580" y="1764" font-size="11" fill="#047857">terraform_data · create</text>
<text x="580" y="1789" font-size="13" fill="#0f172a">module.service[&quot;api&quot;].terraform_dat</text>
<text x="580" y="1809" font-size="13" fill="#0f172a">a.worker[1]</text>
</g>
<g id="resource-7" data-qualified-address="module.service[&quot;web&quot;].module.nested.terraform_data.leaf" data-terraform-address="module.service[&quot;web&quot;].module.nested.terraform_data.leaf"><title>module.service[&quot;web&quot;].module.nested.terraform_data.leaf — create</title>
<rect x="988" y="2704" width="320" height="96" rx="8" fill="#ecfdf5" stroke="#047857" stroke-width="1.5" data-mode="managed"/>
<text x="1000" y="2724" font-size="11" fill="#047857">terraform_data · create</text>
<text x="1000" y="2749" font-size="13" fill="#0f172a">module.service[&quot;web&quot;].module.nested</text>
<text x="1000" y="2769" font-size="13" fill="#0f172a">.terraform_data.leaf</text>
</g>
<g id="resource-8" data-qualified-address="module.service[&quot;web&quot;].terraform_data.worker[0]" data-terraform-address="module.service[&quot;web&quot;].terraform_data.worker[0]"><title>module.service[&quot;web&quot;].terraform_data.worker[0] — create</title>
<rect x="568" y="2480" width="320" height="96" rx="8" fill="#ecfdf5" stroke="#047857" stroke-width="1.5" data-mode="managed"/>
<text x="580" y="2500" font-size="11" fill="#047857">terraform_data · create</text>
<text x="580" y="2525" font-size="13" fill="#0f172a">module.service[&quot;web&quot;].terraform_dat</text>
<text x="580" y="2545" font-size="13" fill="#0f172a">a.worker[0]</text>
</g>
<g id="resource-9" data-qualified-address="module.service[&quot;web&quot;].terraform_data.worker[1]" data-terraform-address="module.service[&quot;web&quot;].terraform_data.worker[1]"><title>module.service[&quot;web&quot;].terraform_data.worker[1] — create</title>
<rect x="568" y="2336" width="320" height="96" rx="8" fill="#ecfdf5" stroke="#047857" stroke-width="1.5" data-mode="managed"/>
<text x="580" y="2356" font-size="11" fill="#047857">terraform_data · create</text>
<text x="580" y="2381" font-size="13" fill="#0f172a">module.service[&quot;web&quot;].terraform_dat</text>
<text x="580" y="2401" font-size="13" fill="#0f172a">a.worker[1]</text>
</g>
<g id="resource-10" data-qualified-address="module.root.terraform_data.consumer" data-terraform-address="terraform_data.consumer"><title>module.root.terraform_data.consumer — create</title>
<rect x="1408" y="208" width="320" height="96" rx="8" fill="#ecfdf5" stroke="#047857" stroke-width="1.5" data-mode="managed"/>
<text x="1420" y="228" font-size="11" fill="#047857">terraform_data · create</text>
<text x="1420" y="253" font-size="13" fill="#0f172a">module.root.terraform_data.consumer</text>
</g>
<g id="resource-11" data-qualified-address="module.root.terraform_data.explicit" data-terraform-address="terraform_data.explicit"><title>module.root.terraform_data.explicit — create</title>
<rect x="568" y="496" width="320" height="96" rx="8" fill="#ecfdf5" stroke="#047857" stroke-width="1.5" data-mode="managed"/>
<text x="580" y="516" font-size="11" fill="#047857">terraform_data · create</text>
<text x="580" y="541" font-size="13" fill="#0f172a">module.root.terraform_data.explicit</text>
</g>
<g id="resource-12" data-qualified-address="module.root.terraform_data.from_state" data-terraform-address="terraform_data.from_state"><title>module.root.terraform_data.from_state — create</title>
<rect x="988" y="208" width="320" height="96" rx="8" fill="#ecfdf5" stroke="#047857" stroke-width="1.5" data-mode="managed"/>
<text x="1000" y="228" font-size="11" fill="#047857">terraform_data · create</text>
<text x="1000" y="253" font-size="13" fill="#0f172a">module.root.terraform_data.from_sta</text>
<text x="1000" y="273" font-size="13" fill="#0f172a">te</text>
</g>
<g id="resource-13" data-qualified-address="module.root.terraform_data.independent" data-terraform-address="terraform_data.independent"><title>module.root.terraform_data.independent — create</title>
<rect x="60" y="352" width="320" height="96" rx="8" fill="#ecfdf5" stroke="#047857" stroke-width="1.5" data-mode="managed"/>
<text x="72" y="372" font-size="11" fill="#047857">terraform_data · create</text>
<text x="72" y="397" font-size="13" fill="#0f172a">module.root.terraform_data.independ</text>
<text x="72" y="417" font-size="13" fill="#0f172a">ent</text>
</g>
<g id="resource-14" data-qualified-address="module.root.terraform_data.network" data-terraform-address="terraform_data.network"><title>module.root.terraform_data.network — create</title>
<rect x="60" y="640" width="320" height="96" rx="8" fill="#ecfdf5" stroke="#047857" stroke-width="1.5" data-mode="managed"/>
<text x="72" y="660" font-size="11" fill="#047857">terraform_data · create</text>
<text x="72" y="685" font-size="13" fill="#0f172a">module.root.terraform_data.network</text>
</g>
<g id="resource-15" data-qualified-address="module.root.terraform_data.ready" data-terraform-address="terraform_data.ready"><title>module.root.terraform_data.ready — create</title>
<rect x="60" y="496" width="320" height="96" rx="8" fill="#ecfdf5" stroke="#047857" stroke-width="1.5" data-mode="managed"/>
<text x="72" y="516" font-size="11" fill="#047857">terraform_data · create</text>
<text x="72" y="541" font-size="13" fill="#0f172a">module.root.terraform_data.ready</text>
</g>
</g>
</svg>
